<svg width="24" height="24" viewBox="0 0 24 24" fill="none" xmlns="http://www.w3.org/2000/svg">
<path d="M6 11.5C6 11.697 5.9612 11.892 5.88582 12.074C5.81044 12.256 5.69995 12.4214 5.56066 12.5607C5.42137 12.6999 5.25601 12.8104 5.07403 12.8858C4.89204 12.9612 4.69698 13 4.5 13C4.30302 13 4.10796 12.9612 3.92597 12.8858C3.74399 12.8104 3.57863 12.6999 3.43934 12.5607C3.30005 12.4214 3.18956 12.256 3.11418 12.074C3.0388 11.892 3 11.697 3 11.5C3 11.1022 3.15804 10.7206 3.43934 10.4393C3.72064 10.158 4.10218 10 4.5 10C4.89782 10 5.27936 10.158 5.56066 10.4393C5.84196 10.7206 6 11.1022 6 11.5Z" fill="#61A68A"/>
<path d="M6 6.5C6 6.69698 5.9612 6.89204 5.88582 7.07403C5.81044 7.25601 5.69995 7.42137 5.56066 7.56066C5.42137 7.69995 5.25601 7.81044 5.07403 7.88582C4.89204 7.9612 4.69698 8 4.5 8C4.30302 8 4.10796 7.9612 3.92597 7.88582C3.74399 7.81044 3.57863 7.69995 3.43934 7.56066C3.30005 7.42137 3.18956 7.25601 3.11418 7.07403C3.0388 6.89204 3 6.69698 3 6.5C3 6.10218 3.15804 5.72064 3.43934 5.43934C3.72064 5.15804 4.10218 5 4.5 5C4.89782 5 5.27936 5.15804 5.56066 5.43934C5.84196 5.72064 6 6.10218 6 6.5Z" fill="#61A68A"/>
<path d="M6 16.5C6 16.697 5.9612 16.892 5.88582 17.074C5.81044 17.256 5.69995 17.4214 5.56066 17.5607C5.42137 17.6999 5.25601 17.8104 5.07403 17.8858C4.89204 17.9612 4.69698 18 4.5 18C4.30302 18 4.10796 17.9612 3.92597 17.8858C3.74399 17.8104 3.57863 17.6999 3.43934 17.5607C3.30005 17.4214 3.18956 17.256 3.11418 17.074C3.0388 16.892 3 16.697 3 16.5C3 16.1022 3.15804 15.7206 3.43934 15.4393C3.72064 15.158 4.10218 15 4.5 15C4.89782 15 5.27936 15.158 5.56066 15.4393C5.84196 15.7206 6 16.1022 6 16.5Z" fill="#61A68A"/>
<path d="M9.53027 5H18.4697C18.8756 5 19.2648 5.15804 19.5518 5.43934C19.8388 5.72064 20 6.10218 20 6.5C20 6.89782 19.8388 7.27936 19.5518 7.56066C19.2648 7.84196 18.8756 8 18.4697 8H9.53027C9.12442 8 8.73519 7.84196 8.44821 7.56066C8.16122 7.27936 8 6.89782 8 6.5C8 6.10218 8.16122 5.72064 8.44821 5.43934C8.73519 5.15804 9.12442 5 9.53027 5V5Z" fill="#61A68A"/>
<path d="M9.53027 10H18.4697C18.6707 10 18.8697 10.0388 19.0553 10.1142C19.241 10.1896 19.4097 10.3001 19.5518 10.4393C19.6939 10.5786 19.8066 10.744 19.8835 10.926C19.9604 11.108 20 11.303 20 11.5C20 11.697 19.9604 11.892 19.8835 12.074C19.8066 12.256 19.6939 12.4214 19.5518 12.5607C19.4097 12.6999 19.241 12.8104 19.0553 12.8858C18.8697 12.9612 18.6707 13 18.4697 13H9.53027C9.32931 13 9.13032 12.9612 8.94466 12.8858C8.759 12.8104 8.5903 12.6999 8.44821 12.5607C8.30611 12.4214 8.19339 12.256 8.11648 12.074C8.03958 11.892 8 11.697 8 11.5C8 11.303 8.03958 11.108 8.11648 10.926C8.19339 10.744 8.30611 10.5786 8.44821 10.4393C8.5903 10.3001 8.759 10.1896 8.94466 10.1142C9.13032 10.0388 9.32931 10 9.53027 10Z" fill="#61A68A"/>
<path d="M9.53027 15H18.4697C18.6707 15 18.8697 15.0388 19.0553 15.1142C19.241 15.1896 19.4097 15.3001 19.5518 15.4393C19.6939 15.5786 19.8066 15.744 19.8835 15.926C19.9604 16.108 20 16.303 20 16.5C20 16.697 19.9604 16.892 19.8835 17.074C19.8066 17.256 19.6939 17.4214 19.5518 17.5607C19.4097 17.6999 19.241 17.8104 19.0553 17.8858C18.8697 17.9612 18.6707 18 18.4697 18H9.53027C9.32931 18 9.13032 17.9612 8.94466 17.8858C8.759 17.8104 8.5903 17.6999 8.44821 17.5607C8.30611 17.4214 8.19339 17.256 8.11648 17.074C8.03958 16.892 8 16.697 8 16.5C8 16.303 8.03958 16.108 8.11648 15.926C8.19339 15.744 8.30611 15.5786 8.44821 15.4393C8.5903 15.3001 8.759 15.1896 8.94466 15.1142C9.13032 15.0388 9.32931 15 9.53027 15Z" fill="#61A68A"/>
</svg>
