<svg width="24" height="24" viewBox="0 0 24 24" fill="none" xmlns="http://www.w3.org/2000/svg">
<path d="M23 9H24C24 8.60786 23.7708 8.2519 23.4138 8.08963L23 9ZM23 22L22.6061 22.9191C22.915 23.0516 23.2699 23.0199 23.5505 22.8348C23.8311 22.6498 24 22.3361 24 22H23ZM8 22L7.60608 22.9191C7.84294 23.0207 8.10984 23.0268 8.35112 22.9363L8 22ZM1 19H0C0 19.4 0.238397 19.7616 0.606081 19.9191L1 19ZM1 6L1.37139 5.07152C1.0633 4.94829 0.714144 4.9859 0.439371 5.17193C0.164599 5.35796 0 5.66818 0 6H1ZM12 16.273L11.3775 17.0556C11.7419 17.3455 12.2581 17.3455 12.6225 17.0556L12 16.273ZM17.0862 7.41037L22.5862 9.91037L23.4138 8.08963L17.9138 5.58963L17.0862 7.41037ZM22 9V22H24V9H22ZM23.3939 21.0809L16.3939 18.0809L15.6061 19.9191L22.6061 22.9191L23.3939 21.0809ZM15.6489 18.0637L7.64888 21.0637L8.35112 22.9363L16.3511 19.9363L15.6489 18.0637ZM8.39392 21.0809L1.39392 18.0809L0.606081 19.9191L7.60608 22.9191L8.39392 21.0809ZM2 19V6H0V19H2ZM0.628609 6.92848L5.62861 8.92848L6.37139 7.07152L1.37139 5.07152L0.628609 6.92848ZM17 19V12H15V19H17ZM9 22V12H7V22H9ZM12 16.273C12.6225 15.4904 12.6227 15.4905 12.6228 15.4906C12.6228 15.4907 12.6229 15.4907 12.623 15.4908C12.623 15.4908 12.623 15.4908 12.6229 15.4907C12.6226 15.4905 12.622 15.49 12.621 15.4892C12.6191 15.4877 12.6158 15.485 12.6111 15.4812C12.6017 15.4736 12.5868 15.4616 12.5669 15.4452C12.5271 15.4125 12.4669 15.3627 12.3894 15.2968C12.2343 15.1651 12.01 14.97 11.7398 14.7212C11.1978 14.2223 10.4776 13.5141 9.76031 12.6744C8.27847 10.9399 7 8.86326 7 7H5C5 9.63674 6.72153 12.1966 8.23969 13.9736C9.02238 14.8897 9.80216 15.6559 10.3852 16.1927C10.6775 16.4616 10.9219 16.6745 11.0949 16.8214C11.1815 16.8949 11.2503 16.952 11.2983 16.9914C11.3223 17.0111 11.3412 17.0264 11.3545 17.0371C11.3612 17.0425 11.3664 17.0468 11.3703 17.0498C11.3722 17.0514 11.3737 17.0526 11.3749 17.0536C11.3755 17.0541 11.3761 17.0545 11.3765 17.0548C11.3767 17.055 11.3769 17.0552 11.377 17.0553C11.3773 17.0554 11.3775 17.0556 12 16.273ZM7 7C7 3.88241 9.4686 2 12 2V0C8.5314 0 5 2.61759 5 7H7ZM12 2C14.5314 2 17 3.88241 17 7H19C19 2.61759 15.4686 0 12 0V2ZM17 7C17 8.86326 15.7215 10.9399 14.2397 12.6744C13.5224 13.5141 12.8022 14.2223 12.2602 14.7212C11.99 14.97 11.7657 15.1651 11.6106 15.2968C11.5331 15.3627 11.4729 15.4125 11.4331 15.4452C11.4132 15.4616 11.3983 15.4736 11.3889 15.4812C11.3842 15.485 11.3809 15.4877 11.379 15.4892C11.378 15.49 11.3774 15.4905 11.3771 15.4907C11.377 15.4908 11.377 15.4908 11.377 15.4908C11.3771 15.4907 11.3772 15.4907 11.3772 15.4906C11.3773 15.4905 11.3775 15.4904 12 16.273C12.6225 17.0556 12.6227 17.0554 12.623 17.0553C12.6231 17.0552 12.6233 17.055 12.6235 17.0548C12.6239 17.0545 12.6245 17.0541 12.6251 17.0536C12.6263 17.0526 12.6278 17.0514 12.6297 17.0498C12.6336 17.0468 12.6388 17.0425 12.6455 17.0371C12.6588 17.0264 12.6777 17.0111 12.7017 16.9914C12.7497 16.952 12.8185 16.8949 12.9051 16.8214C13.0781 16.6745 13.3225 16.4616 13.6148 16.1927C14.1978 15.6559 14.9776 14.8897 15.7603 13.9736C17.2785 12.1966 19 9.63674 19 7H17ZM14 7C14 6.46957 13.7893 5.96086 13.4142 5.58579L12 7H14ZM13.4142 5.58579C13.0391 5.21071 12.5304 5 12 5V7L13.4142 5.58579ZM12 5C11.4696 5 10.9609 5.21071 10.5858 5.58579L12 7V5ZM10.5858 5.58579C10.2107 5.96086 10 6.46957 10 7H12L10.5858 5.58579ZM10 7C10 7.53043 10.2107 8.03914 10.5858 8.41421L12 7H10ZM10.5858 8.41421C10.9609 8.78929 11.4696 9 12 9V7L10.5858 8.41421ZM12 9C12.5304 9 13.0391 8.78929 13.4142 8.41421L12 7V9ZM13.4142 8.41421C13.7893 8.03914 14 7.53043 14 7H12L13.4142 8.41421Z" fill="#61A68A"/>
</svg>
