<svg width="33" height="33" viewBox="0 0 33 33" fill="none" xmlns="http://www.w3.org/2000/svg">
<path d="M16.5 19.25C19.5332 19.25 22 16.7832 22 13.75C22 10.7167 19.5332 8.25 16.5 8.25C13.4667 8.25 11 10.7167 11 13.75C11 16.7832 13.4667 19.25 16.5 19.25ZM16.5 11C18.0166 11 19.25 12.2334 19.25 13.75C19.25 15.2666 18.0166 16.5 16.5 16.5C14.9834 16.5 13.75 15.2666 13.75 13.75C13.75 12.2334 14.9834 11 16.5 11Z" fill="#61A68A"/>
<path d="M15.7025 29.9942C15.9352 30.1604 16.214 30.2498 16.5 30.2498C16.786 30.2498 17.0648 30.1604 17.2975 29.9942C17.7155 29.6986 27.5399 22.605 27.5 13.75C27.5 7.68488 22.5651 2.75 16.5 2.75C10.4349 2.75 5.5 7.68487 5.5 13.7431C5.46012 22.605 15.2845 29.6986 15.7025 29.9942ZM16.5 5.5C21.0499 5.5 24.75 9.20013 24.75 13.7569C24.7789 19.8591 18.7165 25.3385 16.5 27.1356C14.2849 25.3371 8.22112 19.8564 8.25 13.75C8.25 9.20012 11.9501 5.5 16.5 5.5Z" fill="#61A68A"/>
</svg>
