<svg width="48" height="38" viewBox="0 0 48 38" fill="none" xmlns="http://www.w3.org/2000/svg">
<path d="M1.32031 16V4.625H5.03906C6.27344 4.625 7.20052 4.88021 7.82031 5.39062C8.44531 5.90104 8.75781 6.65625 8.75781 7.65625C8.75781 8.1875 8.60677 8.65885 8.30469 9.07031C8.0026 9.47656 7.59115 9.79167 7.07031 10.0156C7.6849 10.1875 8.16927 10.5156 8.52344 11C8.88281 11.4792 9.0625 12.0521 9.0625 12.7188C9.0625 13.7396 8.73177 14.5417 8.07031 15.125C7.40885 15.7083 6.47396 16 5.26562 16H1.32031ZM2.82031 10.6797V14.7734H5.29688C5.99479 14.7734 6.54427 14.5938 6.94531 14.2344C7.35156 13.8698 7.55469 13.3698 7.55469 12.7344C7.55469 11.3646 6.8099 10.6797 5.32031 10.6797H2.82031ZM2.82031 9.47656H5.08594C5.74219 9.47656 6.26562 9.3125 6.65625 8.98438C7.05208 8.65625 7.25 8.21094 7.25 7.64844C7.25 7.02344 7.06771 6.57031 6.70312 6.28906C6.33854 6.0026 5.78385 5.85938 5.03906 5.85938H2.82031V9.47656ZM16.2812 15.1641C15.7188 15.8255 14.8932 16.1562 13.8047 16.1562C12.9036 16.1562 12.2161 15.8958 11.7422 15.375C11.2734 14.849 11.0365 14.0729 11.0312 13.0469V7.54688H12.4766V13.0078C12.4766 14.2891 12.9974 14.9297 14.0391 14.9297C15.1432 14.9297 15.8776 14.5182 16.2422 13.6953V7.54688H17.6875V16H16.3125L16.2812 15.1641ZM24.8125 13.7578C24.8125 13.3672 24.6641 13.0651 24.3672 12.8516C24.0755 12.6328 23.5625 12.4453 22.8281 12.2891C22.099 12.1328 21.5182 11.9453 21.0859 11.7266C20.6589 11.5078 20.3411 11.2474 20.1328 10.9453C19.9297 10.6432 19.8281 10.2839 19.8281 9.86719C19.8281 9.17448 20.1198 8.58854 20.7031 8.10938C21.2917 7.63021 22.0417 7.39062 22.9531 7.39062C23.9115 7.39062 24.6875 7.63802 25.2812 8.13281C25.8802 8.6276 26.1797 9.26042 26.1797 10.0312H24.7266C24.7266 9.63542 24.5573 9.29427 24.2188 9.00781C23.8854 8.72135 23.4635 8.57812 22.9531 8.57812C22.4271 8.57812 22.0156 8.69271 21.7188 8.92188C21.4219 9.15104 21.2734 9.45052 21.2734 9.82031C21.2734 10.1693 21.4115 10.4323 21.6875 10.6094C21.9635 10.7865 22.4609 10.9557 23.1797 11.1172C23.9036 11.2786 24.4896 11.4714 24.9375 11.6953C25.3854 11.9193 25.7161 12.1901 25.9297 12.5078C26.1484 12.8203 26.2578 13.2031 26.2578 13.6562C26.2578 14.4115 25.9557 15.0182 25.3516 15.4766C24.7474 15.9297 23.9635 16.1562 23 16.1562C22.3229 16.1562 21.724 16.0365 21.2031 15.7969C20.6823 15.5573 20.2734 15.224 19.9766 14.7969C19.6849 14.3646 19.5391 13.8984 19.5391 13.3984H20.9844C21.0104 13.8828 21.2031 14.2682 21.5625 14.5547C21.9271 14.8359 22.4062 14.9766 23 14.9766C23.5469 14.9766 23.9844 14.8672 24.3125 14.6484C24.6458 14.4245 24.8125 14.1276 24.8125 13.7578ZM9.17969 23.8594H5.52344V34H4.03125V23.8594H0.382812V22.625H9.17969V23.8594ZM14.9688 34C14.8854 33.8333 14.8177 33.5365 14.7656 33.1094C14.0938 33.8073 13.2917 34.1562 12.3594 34.1562C11.526 34.1562 10.8411 33.9219 10.3047 33.4531C9.77344 32.9792 9.50781 32.3802 9.50781 31.6562C9.50781 30.776 9.84115 30.0938 10.5078 29.6094C11.1797 29.1198 12.1224 28.875 13.3359 28.875H14.7422V28.2109C14.7422 27.7057 14.5911 27.3047 14.2891 27.0078C13.987 26.7057 13.5417 26.5547 12.9531 26.5547C12.4375 26.5547 12.0052 26.6849 11.6562 26.9453C11.3073 27.2057 11.1328 27.5208 11.1328 27.8906H9.67969C9.67969 27.4688 9.82812 27.0625 10.125 26.6719C10.4271 26.276 10.8333 25.9635 11.3438 25.7344C11.8594 25.5052 12.4245 25.3906 13.0391 25.3906C14.013 25.3906 14.776 25.6354 15.3281 26.125C15.8802 26.6094 16.1667 27.2786 16.1875 28.1328V32.0234C16.1875 32.7995 16.2865 33.4167 16.4844 33.875V34H14.9688ZM12.5703 32.8984C13.0234 32.8984 13.4531 32.7812 13.8594 32.5469C14.2656 32.3125 14.5599 32.0078 14.7422 31.6328V29.8984H13.6094C11.8385 29.8984 10.9531 30.4167 10.9531 31.4531C10.9531 31.9062 11.1042 32.2604 11.4062 32.5156C11.7083 32.7708 12.0964 32.8984 12.5703 32.8984ZM20.8125 30.0859L19.9062 31.0312V34H18.4609V22H19.9062V29.2578L20.6797 28.3281L23.3125 25.5469H25.0703L21.7812 29.0781L25.4531 34H23.7578L20.8125 30.0859ZM28.1328 34H26.6875V25.5469H28.1328V34ZM26.5703 23.3047C26.5703 23.0703 26.6406 22.8724 26.7812 22.7109C26.9271 22.5495 27.1406 22.4688 27.4219 22.4688C27.7031 22.4688 27.9167 22.5495 28.0625 22.7109C28.2083 22.8724 28.2812 23.0703 28.2812 23.3047C28.2812 23.5391 28.2083 23.7344 28.0625 23.8906C27.9167 24.0469 27.7031 24.125 27.4219 24.125C27.1406 24.125 26.9271 24.0469 26.7812 23.8906C26.6406 23.7344 26.5703 23.5391 26.5703 23.3047ZM31.8203 25.5469L31.8672 26.6094C32.513 25.7969 33.3568 25.3906 34.3984 25.3906C36.1849 25.3906 37.0859 26.3984 37.1016 28.4141V34H35.6562V28.4062C35.651 27.7969 35.5104 27.3464 35.2344 27.0547C34.9635 26.763 34.5391 26.6172 33.9609 26.6172C33.4922 26.6172 33.0807 26.7422 32.7266 26.9922C32.3724 27.2422 32.0964 27.5703 31.8984 27.9766V34H30.4531V25.5469H31.8203ZM38.9375 29.7031C38.9375 28.3854 39.2422 27.3385 39.8516 26.5625C40.4609 25.7812 41.2682 25.3906 42.2734 25.3906C43.3047 25.3906 44.1094 25.7552 44.6875 26.4844L44.7578 25.5469H46.0781V33.7969C46.0781 34.8906 45.7526 35.7526 45.1016 36.3828C44.4557 37.013 43.5859 37.3281 42.4922 37.3281C41.8828 37.3281 41.2865 37.1979 40.7031 36.9375C40.1198 36.6771 39.6745 36.3203 39.3672 35.8672L40.1172 35C40.737 35.7656 41.4948 36.1484 42.3906 36.1484C43.0938 36.1484 43.6406 35.9505 44.0312 35.5547C44.4271 35.1589 44.625 34.6016 44.625 33.8828V33.1562C44.0469 33.8229 43.2578 34.1562 42.2578 34.1562C41.2682 34.1562 40.4661 33.7578 39.8516 32.9609C39.2422 32.1641 38.9375 31.0781 38.9375 29.7031ZM40.3906 29.8672C40.3906 30.8203 40.5859 31.5703 40.9766 32.1172C41.3672 32.6589 41.9141 32.9297 42.6172 32.9297C43.5286 32.9297 44.1979 32.5156 44.625 31.6875V27.8281C44.1823 27.0208 43.5182 26.6172 42.6328 26.6172C41.9297 26.6172 41.3802 26.8906 40.9844 27.4375C40.5885 27.9844 40.3906 28.7943 40.3906 29.8672Z" fill="#61A68A"/>
<ellipse cx="37" cy="18" rx="8" ry="2" stroke="#61A68A" stroke-linecap="round" stroke-dasharray="1 3"/>
<path d="M40.5011 0.602027C40.4901 0.606691 40.4846 0.608891 40.4828 0.609612L40.3771 0.643353L40.2935 0.723372L40.0509 0.955726L40.0251 0.980431L40.0031 1.00855C39.9185 1.11656 39.8731 1.23283 39.8482 1.32053L39.6562 1.35117L39.6562 1.35117L39.6533 1.35164C39.5011 1.37685 39.3529 1.42256 39.2132 1.48765L38.6122 1.69867C38.5485 1.71388 38.5018 1.73581 38.4839 1.74423L38.4831 1.74459C38.4344 1.76753 38.3881 1.79537 38.3475 1.82388C38.3071 1.85224 38.2611 1.88914 38.2177 1.93422C38.1854 1.96784 38.1261 2.03473 38.0851 2.13144L37.4725 3.44637C37.4637 3.45746 37.4533 3.4698 37.4425 3.48179C37.4341 3.49107 37.4274 3.49794 37.4227 3.50245L37.38 3.52969L37.335 3.57948L36.7721 4.20147C36.6669 4.30493 36.576 4.42191 36.5022 4.54953L33.9683 8.81679C33.8785 8.92964 33.8423 9.05007 33.8264 9.13138C33.8085 9.22261 33.8087 9.30676 33.8088 9.33869C33.8088 9.34051 33.8088 9.34216 33.8088 9.34364V9.35515L33.8093 9.36665L33.8717 10.7194L33.7426 10.8017V10.9849C33.7323 11.0051 33.7188 11.0326 33.7068 11.0612C33.6971 11.0845 33.685 11.1164 33.675 11.1541C33.6691 11.1762 33.6628 11.2044 33.6588 11.2372L33.5975 11.55L33.5882 11.5976V11.6035L33.5829 11.619L33.5816 11.6228C33.5742 11.6441 33.5606 11.6831 33.5495 11.7243C33.5393 11.7624 33.5261 11.8202 33.5228 11.889L33.5022 12.1058L33.5 12.1293V12.153C33.5 12.2268 33.5108 12.3373 33.5498 12.4494C33.5739 12.5184 33.6519 12.7115 33.8514 12.818L34.0956 13.0105V13.357C34.0956 13.4187 34.105 13.4757 34.1099 13.5035C34.1155 13.5357 34.1225 13.5692 34.1275 13.5934L34.1282 13.5965C34.1337 13.6231 34.1373 13.6403 34.1397 13.6537V13.7014L34.1588 13.7686L34.2911 14.2333L34.3051 14.2824L34.3288 14.3278C34.3285 14.3271 34.3308 14.3316 34.3364 14.3458C34.3409 14.3573 34.3447 14.3677 34.3504 14.3832C34.3526 14.3892 34.3551 14.396 34.358 14.4039C34.3667 14.4275 34.3798 14.4625 34.3959 14.4987C34.4119 14.5346 34.4362 14.5842 34.472 14.6355L34.4762 14.6416L34.4806 14.6475L34.9494 15.2802C35.0215 15.397 35.1182 15.4791 35.2005 15.5317C35.2843 15.5852 35.423 15.6525 35.5882 15.6525H35.5887L36.2323 16.2072L36.2432 16.2166L36.2546 16.2253C36.2676 16.2353 36.2774 16.2436 36.2844 16.2502L36.286 16.2563L36.3077 16.3009L36.5854 16.8708C36.5857 16.8741 36.5859 16.8778 36.5862 16.8819C36.5873 16.9013 36.5877 16.9217 36.5879 16.9452L36.5302 17.2587L36.5219 17.3036V17.3493C36.5219 17.4726 36.5481 17.5739 36.5687 17.6413C36.587 17.7008 36.5926 17.7149 36.596 17.7234C36.5985 17.7298 36.5998 17.733 36.6043 17.7502L36.6572 17.953L36.839 18.0574L36.8882 18.0857C36.9141 18.1096 36.9392 18.1296 36.9614 18.1459C37.0076 18.1799 37.0518 18.2059 37.0825 18.2232C37.0971 18.2314 37.111 18.239 37.1212 18.2446L37.1233 18.2457L37.1267 18.2476L37.1529 18.2727L37.2251 18.3072L37.4725 18.4257C37.6584 18.5277 37.8516 18.5096 37.986 18.4601C38.1239 18.4093 38.2377 18.3157 38.3146 18.2053L38.3604 18.1395L38.3833 18.0626L38.4716 17.7669L38.474 17.7586L38.4762 17.7502C38.4807 17.733 38.482 17.7298 38.4845 17.7234C38.4879 17.7149 38.4935 17.7008 38.5118 17.6413C38.5325 17.5739 38.5586 17.4726 38.5586 17.3493V15.9974C38.5586 15.9773 38.5587 15.9409 38.5607 15.902C38.5615 15.8873 38.5624 15.8743 38.5635 15.8634L39.0725 14.6243L39.0808 14.6043C39.0824 14.6019 39.0843 14.5991 39.0866 14.5959C39.0878 14.5941 39.0896 14.5916 39.0918 14.5885C39.1019 14.574 39.1207 14.5473 39.1356 14.5243C39.1408 14.5162 39.1476 14.5055 39.1553 14.4925L39.641 13.9737C39.6556 13.9629 39.6675 13.9533 39.6762 13.9462C39.7091 13.9192 39.7415 13.889 39.7714 13.8582C39.8039 13.8247 39.8799 13.7442 39.9338 13.6363L40.6541 12.4798C40.7553 12.3446 40.8059 12.2225 40.8338 12.0889C40.8468 12.0263 40.8512 11.9959 40.8545 11.9724C40.8587 11.943 40.8614 11.9245 40.8776 11.8675L40.8967 11.8004V11.7679C40.8977 11.7653 40.8987 11.7625 40.8999 11.7596C40.9049 11.747 40.9106 11.7347 40.9157 11.7248C40.9177 11.7209 40.9192 11.7182 40.9202 11.7165L40.9549 11.6666L40.9772 11.6048L41.3732 10.5094C41.3957 10.4487 41.415 10.3678 41.4283 10.3109C41.4458 10.2355 41.4665 10.1399 41.4891 10.0311C41.5344 9.81296 41.5894 9.53199 41.6461 9.23379C41.7572 8.65026 41.8763 7.99225 41.9441 7.59414C41.9578 7.53912 41.9624 7.49057 41.9641 7.45599C41.9666 7.40843 41.9647 7.3652 41.9628 7.33533C41.9616 7.31547 41.9596 7.29041 41.9582 7.27363C41.9578 7.26794 41.9574 7.2632 41.9572 7.25993L41.9558 7.23867C41.9555 7.23345 41.9555 7.23129 41.9555 7.23132C41.9555 7.20956 41.9555 7.19341 41.9562 7.17714C41.9563 7.17472 41.9564 7.17241 41.9565 7.17022L41.9575 7.16894L41.9836 7.10577L42.4909 5.88063L42.5041 5.84888L42.5059 5.84187C42.5093 5.83602 42.5141 5.82787 42.5212 5.81637C42.5231 5.81333 42.5255 5.80938 42.5284 5.8048C42.5387 5.78811 42.5543 5.76295 42.5666 5.74183C42.5788 5.72078 42.6019 5.68049 42.622 5.63081L42.8583 5.11653L42.8767 5.0766L42.8878 5.03408C42.9126 4.93894 42.9196 4.83733 42.9227 4.77683C42.926 4.7089 42.926 4.64595 42.926 4.61389V4.61205V4.56887L42.9186 4.52632L42.9027 4.43466C42.8962 4.3061 42.8633 4.11263 42.7509 3.93942L42.7275 3.88911V3.75542L42.7819 3.49504C42.8061 3.45783 42.8261 3.42214 42.8388 3.39911C42.8436 3.39041 42.8474 3.38354 42.8504 3.378C42.8514 3.37617 42.8524 3.37449 42.8532 3.37293L43.3092 2.91646L43.39 2.83552L43.4266 2.73049C43.4264 2.73117 43.4284 2.72672 43.4391 2.70094C43.4481 2.67915 43.4704 2.62521 43.4847 2.5614C43.4969 2.5067 43.5227 2.3652 43.4563 2.20805C43.4243 2.13235 43.3796 2.07175 43.3287 2.02404L43.1407 1.71298L43.1064 1.65633L43.0586 1.61054C43.0568 1.60883 43.0543 1.60624 43.0509 1.60289C43.0087 1.56009 42.8441 1.39313 42.5981 1.35343L41.8762 1.1164L41.8002 1.09145H41.7982L41.5904 0.826044C41.481 0.677567 41.2616 0.5 40.9702 0.5H40.904C40.8249 0.5 40.7564 0.513804 40.7073 0.526758C40.657 0.540012 40.6127 0.556288 40.58 0.569181C40.5543 0.579328 40.5277 0.590686 40.5106 0.597971C40.507 0.599526 40.5038 0.600894 40.5011 0.602027ZM37.1512 18.2613C37.1511 18.2613 37.1494 18.2603 37.1464 18.2584C37.1499 18.2604 37.1513 18.2614 37.1512 18.2613Z" fill="#61A68A" stroke="white"/>
</svg>
