<svg width="24" height="24" viewBox="0 0 24 24" fill="none" xmlns="http://www.w3.org/2000/svg">
<path fill-rule="evenodd" clip-rule="evenodd" d="M5.58618 11.9502C6.41418 11.9502 6.96518 11.3992 6.96518 10.5712L6.96118 10.1362C6.96118 10.1362 6.75618 8.90321 8.40118 8.90321L15.0622 8.94921V10.7082C15.2177 10.8627 15.428 10.9494 15.6472 10.9494C15.8664 10.9494 16.0767 10.8627 16.2322 10.7082L18.8052 8.13621C18.9597 7.98071 19.0464 7.77041 19.0464 7.55121C19.0464 7.33201 18.9597 7.12171 18.8052 6.96621L16.2322 4.24121C16.0767 4.08671 15.8664 4 15.6472 4C15.428 4 15.2177 4.08671 15.0622 4.24121V6.08621C14.9012 6.03921 8.60918 6.01221 8.60918 6.01221C4.89818 6.01221 4.08618 8.44121 4.08618 9.41921V10.4502C4.08618 10.848 4.24422 11.2296 4.52552 11.5109C4.80683 11.7922 5.18836 11.9502 5.58618 11.9502Z" fill="#61A68A"/>
<path fill-rule="evenodd" clip-rule="evenodd" d="M17.5472 11.9912C16.7192 11.9912 16.0472 12.5752 16.0472 13.4032L16.0492 14.3602C16.0042 14.7172 15.4042 14.9502 14.5242 14.9502H7.98521L7.98321 13.3912C7.82771 13.2367 7.61741 13.15 7.39821 13.15C7.17901 13.15 6.96871 13.2367 6.81321 13.3912L4.24121 15.9632C4.08671 16.1187 4 16.329 4 16.5482C4 16.7674 4.08671 16.9777 4.24121 17.1332L6.81321 19.7052C6.88994 19.7822 6.98112 19.8433 7.0815 19.8849C7.18189 19.9266 7.28952 19.9481 7.39821 19.9481C7.5069 19.9481 7.61453 19.9266 7.71491 19.8849C7.8153 19.8433 7.90647 19.7822 7.98321 19.7052L7.98521 17.8542H14.5242C18.2352 17.8542 19.0472 15.4122 19.0472 14.4332V13.4022C19.0472 12.5752 18.3752 11.9912 17.5472 11.9912Z" fill="#61A68A"/>
</svg>
