<svg width="48" height="37" viewBox="0 0 48 37" fill="none" xmlns="http://www.w3.org/2000/svg">
<path d="M1.32031 15V3.625H5.03906C6.27344 3.625 7.20052 3.88021 7.82031 4.39062C8.44531 4.90104 8.75781 5.65625 8.75781 6.65625C8.75781 7.1875 8.60677 7.65885 8.30469 8.07031C8.0026 8.47656 7.59115 8.79167 7.07031 9.01562C7.6849 9.1875 8.16927 9.51562 8.52344 10C8.88281 10.4792 9.0625 11.0521 9.0625 11.7188C9.0625 12.7396 8.73177 13.5417 8.07031 14.125C7.40885 14.7083 6.47396 15 5.26562 15H1.32031ZM2.82031 9.67969V13.7734H5.29688C5.99479 13.7734 6.54427 13.5938 6.94531 13.2344C7.35156 12.8698 7.55469 12.3698 7.55469 11.7344C7.55469 10.3646 6.8099 9.67969 5.32031 9.67969H2.82031ZM2.82031 8.47656H5.08594C5.74219 8.47656 6.26562 8.3125 6.65625 7.98438C7.05208 7.65625 7.25 7.21094 7.25 6.64844C7.25 6.02344 7.06771 5.57031 6.70312 5.28906C6.33854 5.0026 5.78385 4.85938 5.03906 4.85938H2.82031V8.47656ZM16.2812 14.1641C15.7188 14.8255 14.8932 15.1562 13.8047 15.1562C12.9036 15.1562 12.2161 14.8958 11.7422 14.375C11.2734 13.849 11.0365 13.0729 11.0312 12.0469V6.54688H12.4766V12.0078C12.4766 13.2891 12.9974 13.9297 14.0391 13.9297C15.1432 13.9297 15.8776 13.5182 16.2422 12.6953V6.54688H17.6875V15H16.3125L16.2812 14.1641ZM24.8125 12.7578C24.8125 12.3672 24.6641 12.0651 24.3672 11.8516C24.0755 11.6328 23.5625 11.4453 22.8281 11.2891C22.099 11.1328 21.5182 10.9453 21.0859 10.7266C20.6589 10.5078 20.3411 10.2474 20.1328 9.94531C19.9297 9.64323 19.8281 9.28385 19.8281 8.86719C19.8281 8.17448 20.1198 7.58854 20.7031 7.10938C21.2917 6.63021 22.0417 6.39062 22.9531 6.39062C23.9115 6.39062 24.6875 6.63802 25.2812 7.13281C25.8802 7.6276 26.1797 8.26042 26.1797 9.03125H24.7266C24.7266 8.63542 24.5573 8.29427 24.2188 8.00781C23.8854 7.72135 23.4635 7.57812 22.9531 7.57812C22.4271 7.57812 22.0156 7.69271 21.7188 7.92188C21.4219 8.15104 21.2734 8.45052 21.2734 8.82031C21.2734 9.16927 21.4115 9.43229 21.6875 9.60938C21.9635 9.78646 22.4609 9.95573 23.1797 10.1172C23.9036 10.2786 24.4896 10.4714 24.9375 10.6953C25.3854 10.9193 25.7161 11.1901 25.9297 11.5078C26.1484 11.8203 26.2578 12.2031 26.2578 12.6562C26.2578 13.4115 25.9557 14.0182 25.3516 14.4766C24.7474 14.9297 23.9635 15.1562 23 15.1562C22.3229 15.1562 21.724 15.0365 21.2031 14.7969C20.6823 14.5573 20.2734 14.224 19.9766 13.7969C19.6849 13.3646 19.5391 12.8984 19.5391 12.3984H20.9844C21.0104 12.8828 21.2031 13.2682 21.5625 13.5547C21.9271 13.8359 22.4062 13.9766 23 13.9766C23.5469 13.9766 23.9844 13.8672 24.3125 13.6484C24.6458 13.4245 24.8125 13.1276 24.8125 12.7578ZM9.17969 22.8594H5.52344V33H4.03125V22.8594H0.382812V21.625H9.17969V22.8594ZM14.9688 33C14.8854 32.8333 14.8177 32.5365 14.7656 32.1094C14.0938 32.8073 13.2917 33.1562 12.3594 33.1562C11.526 33.1562 10.8411 32.9219 10.3047 32.4531C9.77344 31.9792 9.50781 31.3802 9.50781 30.6562C9.50781 29.776 9.84115 29.0938 10.5078 28.6094C11.1797 28.1198 12.1224 27.875 13.3359 27.875H14.7422V27.2109C14.7422 26.7057 14.5911 26.3047 14.2891 26.0078C13.987 25.7057 13.5417 25.5547 12.9531 25.5547C12.4375 25.5547 12.0052 25.6849 11.6562 25.9453C11.3073 26.2057 11.1328 26.5208 11.1328 26.8906H9.67969C9.67969 26.4688 9.82812 26.0625 10.125 25.6719C10.4271 25.276 10.8333 24.9635 11.3438 24.7344C11.8594 24.5052 12.4245 24.3906 13.0391 24.3906C14.013 24.3906 14.776 24.6354 15.3281 25.125C15.8802 25.6094 16.1667 26.2786 16.1875 27.1328V31.0234C16.1875 31.7995 16.2865 32.4167 16.4844 32.875V33H14.9688ZM12.5703 31.8984C13.0234 31.8984 13.4531 31.7812 13.8594 31.5469C14.2656 31.3125 14.5599 31.0078 14.7422 30.6328V28.8984H13.6094C11.8385 28.8984 10.9531 29.4167 10.9531 30.4531C10.9531 30.9062 11.1042 31.2604 11.4062 31.5156C11.7083 31.7708 12.0964 31.8984 12.5703 31.8984ZM20.8125 29.0859L19.9062 30.0312V33H18.4609V21H19.9062V28.2578L20.6797 27.3281L23.3125 24.5469H25.0703L21.7812 28.0781L25.4531 33H23.7578L20.8125 29.0859ZM28.1328 33H26.6875V24.5469H28.1328V33ZM26.5703 22.3047C26.5703 22.0703 26.6406 21.8724 26.7812 21.7109C26.9271 21.5495 27.1406 21.4688 27.4219 21.4688C27.7031 21.4688 27.9167 21.5495 28.0625 21.7109C28.2083 21.8724 28.2812 22.0703 28.2812 22.3047C28.2812 22.5391 28.2083 22.7344 28.0625 22.8906C27.9167 23.0469 27.7031 23.125 27.4219 23.125C27.1406 23.125 26.9271 23.0469 26.7812 22.8906C26.6406 22.7344 26.5703 22.5391 26.5703 22.3047ZM31.8203 24.5469L31.8672 25.6094C32.513 24.7969 33.3568 24.3906 34.3984 24.3906C36.1849 24.3906 37.0859 25.3984 37.1016 27.4141V33H35.6562V27.4062C35.651 26.7969 35.5104 26.3464 35.2344 26.0547C34.9635 25.763 34.5391 25.6172 33.9609 25.6172C33.4922 25.6172 33.0807 25.7422 32.7266 25.9922C32.3724 26.2422 32.0964 26.5703 31.8984 26.9766V33H30.4531V24.5469H31.8203ZM38.9375 28.7031C38.9375 27.3854 39.2422 26.3385 39.8516 25.5625C40.4609 24.7812 41.2682 24.3906 42.2734 24.3906C43.3047 24.3906 44.1094 24.7552 44.6875 25.4844L44.7578 24.5469H46.0781V32.7969C46.0781 33.8906 45.7526 34.7526 45.1016 35.3828C44.4557 36.013 43.5859 36.3281 42.4922 36.3281C41.8828 36.3281 41.2865 36.1979 40.7031 35.9375C40.1198 35.6771 39.6745 35.3203 39.3672 34.8672L40.1172 34C40.737 34.7656 41.4948 35.1484 42.3906 35.1484C43.0938 35.1484 43.6406 34.9505 44.0312 34.5547C44.4271 34.1589 44.625 33.6016 44.625 32.8828V32.1562C44.0469 32.8229 43.2578 33.1562 42.2578 33.1562C41.2682 33.1562 40.4661 32.7578 39.8516 31.9609C39.2422 31.1641 38.9375 30.0781 38.9375 28.7031ZM40.3906 28.8672C40.3906 29.8203 40.5859 30.5703 40.9766 31.1172C41.3672 31.6589 41.9141 31.9297 42.6172 31.9297C43.5286 31.9297 44.1979 31.5156 44.625 30.6875V26.8281C44.1823 26.0208 43.5182 25.6172 42.6328 25.6172C41.9297 25.6172 41.3802 25.8906 40.9844 26.4375C40.5885 26.9844 40.3906 27.7943 40.3906 28.8672Z" fill="white"/>
<ellipse cx="37" cy="17" rx="8" ry="2" stroke="white" stroke-linecap="round" stroke-dasharray="1 3"/>
<path d="M40.6394 0.0844925C40.7055 0.0633694 40.8158 0 40.904 0H40.9702C41.0585 0 41.1467 0.0633694 41.1908 0.126739L41.4555 0.464709C41.4775 0.528078 41.6319 0.591448 41.7202 0.591448L42.4922 0.844925C42.5804 0.844925 42.6466 0.908295 42.7128 0.971664L42.9554 1.373C43.0436 1.39413 42.9775 1.49974 42.9554 1.56311L42.4701 2.04894C42.426 2.09119 42.3819 2.21793 42.3157 2.2813L42.2275 2.70376V2.99948L42.3157 3.18959C42.3819 3.27408 42.404 3.40082 42.404 3.48532L42.426 3.61205C42.426 3.67542 42.426 3.82329 42.404 3.90778L42.1613 4.43586C42.1393 4.49923 42.051 4.60484 42.029 4.68933L41.5217 5.91448C41.4555 5.99897 41.4555 6.14683 41.4555 6.23132C41.4555 6.31582 41.4775 6.42143 41.4555 6.4848C41.3231 7.26636 40.9702 9.16744 40.904 9.33642L40.507 10.4348C40.4629 10.4982 40.3967 10.6461 40.3967 10.7305C40.3305 10.9629 40.3747 11.0263 40.2423 11.1953L39.4924 12.3993C39.4703 12.4626 39.36 12.5683 39.3159 12.5894L38.7424 13.202C38.7203 13.2653 38.6321 13.3498 38.6101 13.4343L38.0807 14.7228C38.0586 14.8073 38.0586 14.9552 38.0586 14.9974V16.3493C38.0586 16.4549 38.0145 16.5394 37.9924 16.6239L37.9042 16.9196C37.8601 16.983 37.7719 17.0252 37.7057 16.983L37.441 16.8563C37.3969 16.814 37.2645 16.7718 37.1984 16.6873L37.0881 16.6239C37.066 16.5394 37.0219 16.4549 37.0219 16.3493L37.0881 15.9902C37.0881 15.9057 37.0881 15.8001 37.066 15.7156L36.7572 15.0819C36.7351 14.9974 36.669 14.9129 36.5587 14.8284L35.897 14.2581C35.8589 14.2231 35.814 14.1957 35.7647 14.1775C35.7155 14.1594 35.6629 14.1509 35.6102 14.1525H35.5882C35.522 14.1525 35.4117 14.0891 35.3676 14.0046L34.8823 13.3498C34.8382 13.2864 34.8161 13.1808 34.772 13.0963L34.6397 12.6316C34.6397 12.5683 34.5956 12.4204 34.5956 12.357V11.8712C34.5956 11.7867 34.5735 11.7022 34.4853 11.6811L34.1103 11.3854C34.0221 11.3642 34 11.2164 34 11.153L34.0221 10.9207C34.0221 10.8362 34.0882 10.7305 34.0882 10.6461L34.1544 10.3081C34.1544 10.2447 34.2426 10.1391 34.2426 10.0757L34.3088 10.0335C34.375 9.94899 34.4191 9.8645 34.375 9.78001L34.3088 8.34364C34.3088 8.28027 34.3088 8.17465 34.375 8.11128L36.9337 3.80216C36.9872 3.70921 37.054 3.62389 37.1322 3.54869L37.7057 2.91499C37.7719 2.87275 37.8601 2.76713 37.9042 2.70376L38.5439 1.33076C38.5659 1.26739 38.6983 1.1829 38.7424 1.1829L39.4041 0.950541C39.5082 0.899605 39.6198 0.863999 39.735 0.844925L40.132 0.781556C40.2203 0.73931 40.3085 0.654817 40.3085 0.591448C40.3085 0.528078 40.3305 0.401339 40.3967 0.316847L40.6394 0.0844925Z" fill="white"/>
</svg>
