<svg width="157" height="52" viewBox="0 0 157 52" fill="none" xmlns="http://www.w3.org/2000/svg">
<path d="M21.9926 14.7865C19.4129 14.7865 17.2086 16.6253 15.9975 17.893C14.7865 16.6253 12.5871 14.7865 10.0086 14.7865C5.56432 14.7865 2.46155 17.8843 2.46155 22.3188C2.46155 27.205 6.31509 30.3631 10.0431 33.4179C11.8031 34.8616 13.6246 36.3533 15.0215 38.0074C15.2566 38.2843 15.6012 38.4443 15.9631 38.4443H16.0345C16.3975 38.4443 16.7409 38.2831 16.9748 38.0074C18.3742 36.3533 20.1945 34.8603 21.9557 33.4179C25.6825 30.3643 29.5385 27.2062 29.5385 22.3188C29.5385 17.8843 26.4357 14.7865 21.9926 14.7865Z" fill="#B96C58"/>
<path d="M63.4945 17.5898C61.5597 17.5898 59.9065 18.9689 58.9982 19.9197C58.0899 18.9689 56.4403 17.5898 54.5065 17.5898C51.1733 17.5898 48.8462 19.9132 48.8462 23.2391C48.8462 26.9037 51.7363 29.2723 54.5323 31.5634C55.8523 32.6462 57.2185 33.7649 58.2662 35.0055C58.4425 35.2132 58.701 35.3332 58.9723 35.3332H59.0259C59.2982 35.3332 59.5557 35.2123 59.7311 35.0055C60.7807 33.7649 62.1459 32.6452 63.4668 31.5634C66.2619 29.2732 69.1539 26.9046 69.1539 23.2391C69.1539 19.9132 66.8268 17.5898 63.4945 17.5898Z" fill="white"/>
<path d="M96 15.3334C91.95 15.3334 88.6666 18.6167 88.6666 22.6667C88.6666 30 97.3333 36.6667 102 38.2174C106.667 36.6667 115.333 30 115.333 22.6667C115.333 18.6167 112.05 15.3334 108 15.3334C105.52 15.3334 103.327 16.5647 102 18.4494C101.324 17.4862 100.425 16.7001 99.381 16.1577C98.3366 15.6153 97.1768 15.3325 96 15.3334Z" stroke="#B96C58" stroke-width="2" stroke-linecap="round" stroke-linejoin="round"/>
<path d="M140.5 18C137.463 18 135 20.4625 135 23.5C135 29 141.5 34 145 35.163C148.5 34 155 29 155 23.5C155 20.4625 152.537 18 149.5 18C147.64 18 145.995 18.9235 145 20.337C144.493 19.6146 143.819 19.025 143.036 18.6182C142.252 18.2114 141.383 17.9994 140.5 18Z" stroke="white" stroke-width="2" stroke-linecap="round" stroke-linejoin="round"/>
<rect x="0.5" y="0.5" width="156" height="51" rx="4.5" stroke="#7B61FF" stroke-dasharray="10 5"/>
</svg>
